#!OML:ASF E:\Steps\Project 1\Capture day 1\Session 2\Subject.ASF
:FULLY-SPECIFIED
:DEGREES
268
root 9.02762 18.5935 23.0589 -153.369 1.90513 177.014
lowerback -26.1695 -3.49443 -5.00034
upperback -2.11676 -2.26732 -1.23757
thorax 12.4084 -0.977579 0.708109
lowerneck 0.00712438 -0.0451073 -0.593145
upperneck 2.67279 -0.0734611 3.4727
head 0.821267 0.017139 1.16776
rclavicle 1.3418e-014 1.31198e-014
rhumerus -44.8188 2.18169 -86.1437
rradius 51.0563
rwrist -7.21982
rhand -4.35733 -48.7397
rfingers 7.12502
rthumb 21.4108 -77.5766
lclavicle 1.3418e-014 1.31198e-014
lhumerus -37.2659 -9.1118 84.1158
lradius 33.8548
lwrist 2.76293
lhand -26.7788 -17.7231
lfingers 7.12502
lthumb -0.20641 12.2565
rfemur -31.9826 5.21308 16.6018
rtibia 45.5432
rfoot 23.8429 -3.6936
rtoes -15.857
lfemur -33.3707 -7.18432 -21.262
ltibia 46.9645
lfoot 30.959 8.65762
ltoes -42.7511
269
root 9.02505 18.724 22.8897 -154.026 1.87895 176.997
lowerback -25.803 -3.37583 -4.98208
upperback -1.64008 -2.2056 -1.28391
thorax 12.7579 -0.994495 0.658705
lowerneck 0.0140827 0.0578917 -0.634547
upperneck 2.82783 0.0633253 3.37375
head 0.864976 0.0858927 1.14551
rclavicle -1.73937e-014 -3.97569e-015
rhumerus -43.6963 1.6071 -86.0723
rradius 49.9321
rwrist -7.09387
rhand -4.43948 -48.2728
rfingers 7.12502
rthumb 21.3319 -77.1187
lclavicle -1.73937e-014 -3.97569e-015
lhumerus -36.1945 -8.88852 84.0716
lradius 33.3166
lwrist 2.43279
lhand -26.1699 -17.9866
lfingers 7.12502
lthumb 0.381668 11.9928
rfemur -32.0034 5.58451 16.3908
rtibia 44.6487
rfoot 23.1695 -3.65951
rtoes -17.5071
lfemur -33.3731 -7.33201 -21.2549
ltibia 46.2193
lfoot 30.6509 9.38434
ltoes -41.7518
270
root 9.02196 18.8418 22.7213 -154.628 1.8259 177.002
lowerback -24.6778 -3.30717 -5.08304
upperback -1.69234 -2.21769 -1.16949
thorax 12.0944 -1.01842 0.878573
lowerneck 0.260736 0.0467309 -0.589662
upperneck 3.01791 0.0533694 3.07049
head 0.881367 0.0788645 1.04282
rclavicle 1.17283e-014 -2.06736e-014
rhumerus -43.6423 1.36115 -85.8102
rradius 49.1823
rwrist -6.89971
rhand -4.083 -48.7056
rfingers 7.12502
rthumb 21.6743 -77.5124
lclavicle 1.17283e-014 -2.06736e-014
lhumerus -36.0843 -8.66006 84.4119
lradius 32.9664
lwrist 2.02068
lhand -26.353 -18.0703
lfingers 7.12502
lthumb 0.2048 11.9094
rfemur -31.9513 5.84949 16.2041
rtibia 43.4683
rfoot 22.9176 -3.61235
rtoes -16.2496
lfemur -33.3646 -7.46817 -21.1931
ltibia 45.1489
lfoot 29.8532 9.89856
ltoes -41.3895
271
root 9.01584 18.9439 22.5474 -155.065 1.76099 177.071
lowerback -24.8347 -3.1912 -4.92232
upperback -1.08306 -2.15794 -1.18854
thorax 12.8743 -1.03359 0.756611
lowerneck -0.00337286 -0.0112775 -0.363461
upperneck 2.91649 -0.0275297 3.04387
head 0.895296 0.0401563 0.995883
rclavicle 1.59028e-015 1.66979e-014
rhumerus -42.612 1.05193 -85.8249
rradius 48.5178
rwrist -6.49812
rhand -4.0852 -49.4247
rfingers 7.12502
rthumb 21.6721 -78.2317
lclavicle 1.59028e-015 1.66979e-014
lhumerus -34.9169 -8.6061 84.4094
lradius 32.5888
lwrist 1.73429
lhand -26.9712 -18.0344
lfingers 7.12502
lthumb -0.392233 11.9449
rfemur -31.9905 6.10803 16.0941
rtibia 42.1534
rfoot 19.7391 -3.65497
rtoes -26.4318
lfemur -33.4127 -7.56505 -21.0543
ltibia 43.7689
lfoot 28.6095 10.1532
ltoes -41.0217
272
root 9.00997 19.0356 22.3738 -155.352 1.75128 177.088
lowerback -24.2738 -3.13163 -4.85568
upperback -1.0529 -2.16351 -1.1525
thorax 12.5987 -1.042 0.773564
lowerneck 0.0271361 -0.0334211 -0.262817
upperneck 3.03976 -0.0563075 3.01292
head 0.928551 0.0291006 0.969515
rclavicle 3.12092e-014 -2.54444e-014
rhumerus -42.5595 1.17916 -85.8327
rradius 48.0803
rwrist -6.1365
rhand -4.59432 -49.3627
rfingers 7.12502
rthumb 21.1832 -78.2254
lclavicle 3.12092e-014 -2.54444e-014
lhumerus -34.7464 -8.53836 84.6159
lradius 32.4606
lwrist 1.54931
lhand -27.0638 -17.8612
lfingers 7.12502
lthumb -0.481675 12.118
rfemur -32.1785 6.20916 15.9322
rtibia 40.7628
rfoot 18.4123 -3.71299
rtoes -27.4585
lfemur -33.574 -7.63942 -20.9793
ltibia 42.269
lfoot 28.2539 10.3205
ltoes -37.2425
273
root 9.00699 19.1206 22.2109 -155.516 1.72359 177.017
lowerback -24.0145 -3.12066 -4.86917
upperback -0.895255 -2.18145 -1.16985
thorax 12.6387 -1.06462 0.757177
lowerneck 0.286038 -0.00115292 -0.17754
upperneck 2.61416 -0.00575964 2.90961
head 0.751663 0.0451956 0.920353
rclavicle 1.60022e-014 1.74931e-014
rhumerus -42.4072 1.3374 -85.84
rradius 47.7685
rwrist -6.02011
rhand -4.99809 -48.7293
rfingers 7.12502
rthumb 20.7953 -77.6349
lclavicle 1.60022e-014 1.74931e-014
lhumerus -34.3308 -8.74502 84.7761
lradius 32.4254
lwrist 1.78267
lhand -26.7641 -17.4874
lfingers 7.12502
lthumb -0.192202 12.4922
rfemur -32.5989 6.21503 15.6617
rtibia 39.3531
rfoot 18.2826 -4.40602
rtoes -26.5649
lfemur -33.9601 -7.67968 -20.9521
ltibia 40.6567
lfoot 27.6158 10.4378
ltoes -37.0135
274
root 9.00648 19.1991 22.0546 -155.633 1.68203 176.992
lowerback -23.2091 -3.13743 -4.94151
upperback -1.03597 -2.26263 -1.07936
thorax 12.0419 -1.10562 0.903731
lowerneck 0.515472 0.0537401 -0.370417
upperneck 2.52895 0.0704266 2.90401
head 0.686106 0.0783521 0.950466
rclavicle 8.54774e-015 5.56597e-015
rhumerus -42.6928 1.51742 -85.7054
rradius 47.5416
rwrist -5.69547
rhand -5.09112 -48.0955
rfingers 7.12502
rthumb 20.7059 -77.0109
lclavicle 8.54774e-015 5.56597e-015
lhumerus -34.2664 -8.70248 85.0484
lradius 32.248
lwrist 1.74398
lhand -26.4017 -17.4179
lfingers 7.12502
lthumb 0.157787 12.5618
rfemur -33.1423 6.32848 15.4246
rtibia 37.974
rfoot 20.3595 -5.77267
rtoes -14.5557
lfemur -34.4738 -7.5461 -20.8765
ltibia 38.9917
lfoot 27.1479 10.5171
ltoes -36.8679
275
root 9.00893 19.2698 21.8969 -155.79 1.68097 177.018
lowerback -23.1868 -3.11464 -5.0203
upperback -0.6165 -2.26629 -0.987998
thorax 12.52 -1.1507 1.03401
lowerneck 0.694067 0.155062 -0.799123
upperneck 1.47157 0.209583 3.03222
head 0.33014 0.127012 1.05899
rclavicle 8.34896e-015 9.14409e-015
rhumerus -41.7545 1.58521 -85.6422
rradius 46.8975
rwrist -5.11415
rhand -5.0493 -48.059
rfingers 7.12502
rthumb 20.746 -76.97
lclavicle 8.34896e-015 9.14409e-015
lhumerus -33.2863 -8.45179 85.1112
lradius 31.9005
lwrist 1.49637
lhand -26.1077 -17.8689
lfingers 7.12502
lthumb 0.441697 12.1104
rfemur -33.5237 6.33443 15.309
rtibia 36.3803
rfoot 16.87 -6.79203
rtoes -26.295
lfemur -34.9117 -7.3099 -20.7867
ltibia 37.3385
lfoot 27.0417 10.3789
ltoes -35.5022
276
root 9.0075 19.3287 21.7343 -155.924 1.65964 177.009
lowerback -22.3143 -3.07615 -4.97944
upperback -0.843716 -2.29279 -0.964006
thorax 11.7737 -1.1494 1.06556
lowerneck 1.05115 0.228092 -1.07689
upperneck 1.19413 0.308403 3.1101
head 0.183977 0.169362 1.12927
rclavicle -9.44227e-015 5.56597e-015
rhumerus -41.8642 1.81156 -85.7829
rradius 46.3604
rwrist -4.52578
rhand -5.00319 -48.3965
rfingers 7.12502
rthumb 20.7903 -77.3027
lclavicle -9.44227e-015 5.56597e-015
lhumerus -33.5467 -8.47304 85.3084
lradius 31.8733
lwrist 1.62525
lhand -26.0322 -18.5395
lfingers 7.12502
lthumb 0.514611 11.4396
rfemur -33.8849 6.24566 15.1538
rtibia 34.668
rfoot 15.9109 -7.8847
rtoes -25.5042
lfemur -35.3341 -7.1057 -20.7719
ltibia 35.6953
lfoot 26.9823 10.002
ltoes -35.0963
277
root 9.00175 19.3736 21.5706 -155.947 1.61891 176.974
lowerback -21.9204 -3.06857 -4.9336
upperback -0.881028 -2.33037 -0.948755
thorax 11.5127 -1.16462 1.05853
lowerneck 1.37355 0.315881 -1.23552
upperneck 0.707086 0.430214 3.1991
head -0.0215516 0.22216 1.18285
rclavicle 1.86858e-014 4.09496e-014
rhumerus -41.6175 2.01459 -86.0161
rradius 45.671
rwrist -3.27785
rhand -5.76178 -47.6185
rfingers 7.12502
rthumb 20.0613 -76.6028
lclavicle 1.86858e-014 4.09496e-014
lhumerus -33.4563 -8.4538 85.4186
lradius 31.83
lwrist 1.70725
lhand -25.845 -19.0372
lfingers 7.12502
lthumb 0.695436 10.9415
rfemur -34.4239 6.28321 14.8824
rtibia 33.1324
rfoot 14.93 -9.32709
rtoes -22.8284
lfemur -35.8845 -6.97642 -20.7906
ltibia 34.11
lfoot 26.9189 9.8634
ltoes -35.1578
